<?xml version="1.0" encoding="UTF-8" standalone="no"?>
<!-- Created with Inkscape (http://www.inkscape.org/) -->

<svg
   width="52.916668mm"
   height="52.91666mm"
   viewBox="0 0 52.080042 52.080034"
   version="1.1"
   id="svg1"
   inkscape:version="1.3.2 (1:1.3.2+202311252150+091e20ef0f)"
   sodipodi:docname="kb.svg"
   xmlns:inkscape="http://www.inkscape.org/namespaces/inkscape"
   xmlns:sodipodi="http://sodipodi.sourceforge.net/DTD/sodipodi-0.dtd"
   xmlns="http://www.w3.org/2000/svg"
   xmlns:svg="http://www.w3.org/2000/svg">
  <sodipodi:namedview
     id="namedview1"
     pagecolor="#505050"
     bordercolor="#eeeeee"
     borderopacity="1"
     inkscape:showpageshadow="0"
     inkscape:pageopacity="0"
     inkscape:pagecheckerboard="0"
     inkscape:deskcolor="#d1d1d1"
     inkscape:document-units="mm"
     inkscape:zoom="2.5500678"
     inkscape:cx="90.781902"
     inkscape:cy="101.95808"
     inkscape:window-width="1920"
     inkscape:window-height="1009"
     inkscape:window-x="1920"
     inkscape:window-y="40"
     inkscape:window-maximized="1"
     inkscape:current-layer="layer1" />
  <defs
     id="defs1" />
  <g
     inkscape:label="Calque 1"
     inkscape:groupmode="layer"
     id="layer1"
     transform="translate(-259.57721,-89.513226)">
    <path
       id="path1"
       style="fill:#008080;stroke-width:1.23526"
       d="m 285.61734,89.513226 a 26.040018,26.040018 0 0 0 -26.04013,26.039914 26.040018,26.040018 0 0 0 4.93244,15.14519 c -0.61921,-2.96687 -0.59474,-7.24697 -0.56728,-11.4222 0,-1.30636 0.0409,-2.61275 0,-3.83747 -0.0408,-5.51123 0.24496,-7.75667 1.18391,-8.65479 0.48989,-0.44907 1.14303,-0.57153 2.00034,-0.57153 0.16329,0 1.34709,-0.0816 2.20439,0.65324 0.65318,0.53071 0.93899,1.34727 0.93899,2.44951 0,2.49026 -0.36731,8.16475 -0.44896,10.20595 1.83707,-1.67378 6.98082,-6.08279 9.26696,-5.02137 0.81647,0.36741 1.14296,1.38805 1.02049,2.98018 0,0.0409 -0.0816,0.57146 -0.57153,1.06135 -0.40824,0.40823 -5.38863,3.18431 -7.14406,4.16408 l 8.49138,7.10342 c 0.0408,0 1.14311,0.73489 1.22476,1.83714 0.0408,0.61236 -0.28582,1.22472 -0.939,1.75543 -2.16366,1.79625 -6.53183,-2.53118 -7.02171,-3.06189 l -4.2458,-4.44985 c 0.36742,2.00036 0.89814,6.16442 -0.57152,7.91985 -0.37362,0.44155 -0.83361,0.71069 -1.4003,0.78962 a 26.040018,26.040018 0 0 0 17.68663,6.99426 26.040018,26.040018 0 0 0 26.03991,-26.04012 26.040018,26.040018 0 0 0 -26.03991,-26.039914 z m 0.084,17.025734 c 4.04156,0.28576 3.22509,8.0832 2.93933,10.32851 1.30636,-1.59212 3.51088,-3.18421 7.06256,-2.85762 6.81759,0.57154 8.98114,6.8992 8.61373,11.06324 -0.36741,4.16404 -4.08228,10.00194 -10.08339,9.47122 -6.00112,-0.5307 -6.57275,-3.02103 -6.57275,-3.02103 0.12247,4.08239 -5.02136,4.04145 -4.409,-2.49037 0.61238,-6.53182 0.65315,-7.02173 -0.0408,-14.94156 -0.73483,-7.87902 2.49036,-7.55239 2.49036,-7.55239 z m 9.33185,12.87378 c -0.15705,0.002 -0.31481,0.0113 -0.47301,0.0266 0,0 -4.36833,0.24507 -4.04174,5.14394 v 0.0815 c 0.44906,4.98052 3.79666,5.1847 5.02138,5.06223 1.14307,-0.0816 4.04152,-1.18385 4.32729,-4.32729 v -0.939 c -0.30618,-3.63587 -2.47808,-5.0831 -4.83392,-5.04797 z"
       inkscape:export-filename="kb.png"
       inkscape:export-xdpi="96"
       inkscape:export-ydpi="96" />
  </g>
</svg>
