<?xml version="1.0" encoding="UTF-8" standalone="no"?>
<!-- Created with Inkscape (http://www.inkscape.org/) -->

<svg
   width="126.48375mm"
   height="126.48374mm"
   viewBox="0 0 126.48375 126.48374"
   version="1.1"
   id="svg1"
   inkscape:version="1.3.2 (1:1.3.2+202311252150+091e20ef0f)"
   sodipodi:docname="kb.svg"
   xmlns:inkscape="http://www.inkscape.org/namespaces/inkscape"
   xmlns:sodipodi="http://sodipodi.sourceforge.net/DTD/sodipodi-0.dtd"
   xmlns="http://www.w3.org/2000/svg"
   xmlns:svg="http://www.w3.org/2000/svg">
  <sodipodi:namedview
     id="namedview1"
     pagecolor="#505050"
     bordercolor="#eeeeee"
     borderopacity="1"
     inkscape:showpageshadow="0"
     inkscape:pageopacity="0"
     inkscape:pagecheckerboard="0"
     inkscape:deskcolor="#d1d1d1"
     inkscape:document-units="mm"
     inkscape:zoom="0.70911897"
     inkscape:cx="122.68745"
     inkscape:cy="221.40149"
     inkscape:window-width="1920"
     inkscape:window-height="1009"
     inkscape:window-x="1920"
     inkscape:window-y="40"
     inkscape:window-maximized="1"
     inkscape:current-layer="layer1" />
  <defs
     id="defs1" />
  <g
     inkscape:label="Calque 1"
     inkscape:groupmode="layer"
     id="layer1"
     transform="translate(-259.57721,-89.513226)">
    <path
       id="path1"
       style="fill:#008080;stroke-width:3"
       d="m 322.81935,89.513226 a 63.241871,63.241871 0 0 0 -63.24214,63.241614 63.241871,63.241871 0 0 0 11.97912,36.78225 c -1.50383,-7.20548 -1.44441,-17.60029 -1.3777,-27.74043 0,-3.17269 0.0992,-6.34544 0,-9.31984 -0.0991,-13.3848 0.59491,-18.83817 2.87528,-21.01939 1.18976,-1.09062 2.77602,-1.38803 4.8581,-1.38803 0.39659,0 3.2716,-0.19817 5.35368,1.58647 1.58634,1.28891 2.28048,3.27203 2.28048,5.94899 0,6.04794 -0.89208,19.82926 -1.09037,24.7866 4.46159,-4.06502 16.95391,-14.77293 22.50612,-12.19512 1.98293,0.89232 2.77584,3.37108 2.4784,7.2378 0,0.0992 -0.19827,1.38786 -1.38803,2.57762 -0.99147,0.99146 -13.08706,7.73356 -17.35036,10.11308 l 20.62251,17.25166 c 0.0992,0 2.7762,1.78478 2.9745,4.46174 0.0991,1.4872 -0.69414,2.97441 -2.28049,4.26331 -5.25476,4.36245 -15.86346,-6.14733 -17.05322,-7.43624 l -10.31151,-10.80709 c 0.89232,4.85818 2.18125,14.97118 -1.38803,19.23448 -0.90739,1.07237 -2.02454,1.72603 -3.40083,1.91771 a 63.241871,63.241871 0 0 0 42.95449,16.98656 63.241871,63.241871 0 0 0 63.24161,-63.24213 63.241871,63.241871 0 0 0 -63.24161,-63.241614 z m 0.20412,41.349404 c 9.81552,0.69402 7.8326,19.6312 7.13858,25.08426 3.17269,-3.86671 8.52668,-7.73331 17.15244,-6.94014 16.55747,1.38806 21.81197,16.75568 20.91965,26.86864 -0.89231,10.11295 -9.91438,24.29112 -24.48894,23.00221 -14.57455,-1.2889 -15.96285,-7.33702 -15.96285,-7.33702 0.29744,9.91467 -12.19507,9.81525 -10.70787,-6.0482 1.48724,-15.86346 1.58627,-17.05327 -0.0992,-36.28771 -1.78464,-19.1353 6.04821,-18.34204 6.04821,-18.34204 z m 22.66373,31.2658 c -0.38143,0.006 -0.76457,0.0274 -1.14877,0.0646 0,0 -10.60911,0.59518 -9.81594,12.49278 v 0.19792 c 1.09061,12.09589 9.22073,12.59178 12.19513,12.29434 2.7761,-0.19829 9.8154,-2.87514 10.50943,-10.50944 v -2.28048 c -0.74359,-8.83024 -6.01835,-12.34504 -11.73985,-12.25971 z"
       inkscape:export-filename="kb.png"
       inkscape:export-xdpi="96"
       inkscape:export-ydpi="96" />
  </g>
</svg>
